<svg width="200" height="200" viewBox="0 0 200 200" fill="none" xmlns="http://www.w3.org/2000/svg">
<g clip-path="url(#clip0_9_2)">
<path d="M54 101C56.948 97.3992 57.3377 92.4782 58.3495 88C60.4498 78.7047 61.9837 69.2884 64.1188 60C64.9098 56.5593 65.1266 47.6822 69.1844 46.3457C71.172 45.691 72.5534 47.4957 73.2971 49.0633C75.2343 53.1468 75.3513 58.5894 76.1968 63C78.8101 76.6339 81.1115 90.338 83.5756 104C84.5026 109.14 84.3023 116.989 89 120C91.6918 110.158 96.1099 100.513 99.811 91C100.815 88.4193 102.417 82.2068 106 82.2068C108.757 82.2068 110.098 85.9449 110.934 88.0008C113.47 94.2337 115.844 100.627 118 107H120C121.997 103.753 123.843 99.9304 127.093 97.7423C132.878 93.8484 141.501 96.9485 148 95.7261C152.771 94.8287 164.158 90.8609 162.458 100.985C161.94 104.07 159.112 106.489 155.996 106.548C153.199 106.601 150.702 104.782 148 104.274C143.313 103.392 136.749 103.378 132.04 104.148C124.632 105.36 125.511 115.138 119.637 117.94C116.878 119.255 114.943 116.035 113.916 113.992C111.069 108.33 109.282 101.915 107 96H105C100.177 106.314 96.6276 117.359 92.5756 128C91.5355 130.732 89.8033 137.793 86.0039 137.793C81.1474 137.793 80.664 125.371 80.0008 122C76.6837 105.142 73.1654 88.0449 71 71C67.4943 73.2469 67.3833 77.0872 66.6003 81C64.7295 90.3485 62.7174 99.6633 60.8009 109C60.2695 111.589 59.7358 117.793 55.9961 117.793C51.5894 117.793 49.6114 108.149 48.4236 105C47.1776 101.697 45.9291 98.4039 45 95C40.4542 96.4668 39.4652 101.492 34.9846 103.258C27.0882 106.37 14.4388 104 6 104C7.52872 112.471 13.7667 120.29 18.8843 127C33.9323 146.731 54.123 160.074 74 174.424C80.0352 178.782 86.051 183.173 92 187.647C94.6265 189.622 97.4618 192.136 101 191.638C105.186 191.049 108.801 187.116 112 184.651C119.189 179.113 126.618 173.856 134 168.579C165.954 145.733 199.997 117.881 200 75C200 70.3743 200.36 65.5716 199.535 61C193.588 28.0104 157.091 8.64723 126 18.2052C119.888 20.0841 113.937 23.2554 109 27.3287C106.583 29.3228 103.446 33.9433 100 33.9444C96.1428 33.9457 91.9261 28.0832 89 25.9244C82.7686 21.327 75.6391 17.9931 68 16.6157C37.9835 11.2038 9.70484 28.6325 1.42824 58C-0.748283 65.7229 -0.625744 75.0363 0.170527 83C0.501153 86.3067 0.886077 92.7611 3.72762 94.9722C5.62241 96.4466 8.76556 95.9954 11 96C16.8982 96.0122 28.5134 98.209 33.6103 94.9722C37.3564 92.5934 39.1593 82.2068 44.0802 82.2068C46.0951 82.2068 47.3046 84.4941 48.0841 86.0201C50.5096 90.7682 51.8286 96.1245 54 101Z" fill="#FB0303"/>
</g>
<defs>
<clipPath id="clip0_9_2">
<rect width="200" height="200" fill="white"/>
</clipPath>
</defs>
</svg>
